Coordinates
version=1
nRows=19
nColumns=36
inDegrees=yes

Units are S.I. units (second, meters, Newtons, ...)
If the header above contains a line with 'inDegrees', this indicates whether rotational values are in degrees (yes) or radians (no).

endheader
time	pelvis_tilt	pelvis_list	pelvis_rotation	pelvis_tx	pelvis_ty	pelvis_tz	hip_flexion_r	hip_adduction_r	hip_rotation_r	knee_angle_r	knee_angle_r_beta	ankle_angle_r	subtalar_angle_r	mtp_angle_r	hip_flexion_l	hip_adduction_l	hip_rotation_l	knee_angle_l	knee_angle_l_beta	ankle_angle_l	subtalar_angle_l	mtp_angle_l	lumbar_extension	lumbar_bending	lumbar_rotation	arm_flex_r	arm_add_r	arm_rot_r	elbow_flex_r	pro_sup_r	arm_flex_l	arm_add_l	arm_rot_l	elbow_flex_l	pro_sup_l
      0.35000000	      1.60957087	     -5.95768590	      2.54234534	      0.34110939	      0.96635651	     -0.20924596	     -0.00509428	      9.26884142	      2.22429585	      9.21579381	      0.16084595	      8.79776818	     -8.83364598	     -6.11345002	     25.07760459	     -5.65710522	      3.50723166	     61.45898087	      1.07266157	      1.70104099	    -12.92973834	     -6.11345002	    -10.02566384	      4.65805856	      3.40160298	     10.51637060	     -5.25180750	     -2.21294509	     41.50029302	    104.23341101	      4.18550964	     -7.08001622	      5.01501642	     32.36358178	    104.17625441
      0.36000000	      1.57615506	     -5.59267557	      2.32426978	      0.35224100	      0.96737007	     -0.20819157	     -1.22629635	      8.94467514	      2.56964618	      8.33417943	      0.14545887	      9.09247440	     -8.34673033	     -6.13398500	     25.70624688	     -5.33538993	      2.91870183	     58.90232198	      1.02803946	      1.81825205	    -12.76387397	     -6.13398500	     -9.93493070	      4.00040379	      4.13864113	     10.91953221	     -5.14867681	     -1.88932456	     42.27159402	    104.39211085	      3.73202915	     -7.06337670	      4.56138363	     31.95995638	    104.15341670
      0.37000000	      1.28280338	     -5.28961194	      2.16736388	      0.36344228	      0.96766345	     -0.20722076	     -2.11293052	      8.66849023	      2.68040451	      7.50502374	      0.13098737	      9.28732613	     -7.98646119	     -6.14607324	     26.60767857	     -5.07079367	      2.40522256	     56.22754126	      0.98135573	      1.89758829	    -12.55344071	     -6.14607324	     -9.48769967	      3.38548676	      4.70727612	     11.28131118	     -5.01051876	     -1.60444497	     43.01508547	    104.50846167	      3.14466833	     -7.15766248	      4.22751131	     31.61616651	    104.12446802
      0.38000000	      1.27017798	     -4.97837791	      1.95792955	      0.37463117	      0.96814995	     -0.20622206	     -3.29113808	      8.38611444	      2.96175555	      6.72261920	      0.11733184	      9.61526308	     -7.45817715	     -6.16626567	     27.00186411	     -4.87392300	      1.82135436	     53.18753189	      0.92829755	      1.81144657	    -12.33262791	     -6.16626567	     -9.41573602	      2.75209937	      5.44908806	     11.63791209	     -5.00933371	     -1.16886106	     43.90169314	    104.67185237	      2.72641190	     -7.16655781	      3.66887715	     31.32203651	    104.09714147
      0.39000000	      1.16898793	     -4.75483731	      1.79497580	      0.38588261	      0.96819540	     -0.20533684	     -4.34848607	      8.18266503	      3.03926763	      5.97192161	      0.10422969	      9.96817129	     -6.92111420	     -6.19504611	     27.43533089	     -4.77080467	      1.28736595	     49.97473110	      0.87222360	      1.67588621	    -12.12375185	     -6.19504611	     -9.23525714	      2.23928416	      6.06676307	     12.01275800	     -4.97032294	     -0.71342217	     44.77901807	    104.85895710	      2.24421892	     -7.19167306	      3.03044835	     31.11552944	    104.09393064
      0.40000000	      1.01167305	     -4.55866268	      1.65681102	      0.39713363	      0.96789299	     -0.20452418	     -5.31843374	      8.00295813	      3.10317097	      5.26817926	      0.09194707	     10.29832910	     -6.35055919	     -6.23621935	     27.83710699	     -4.68015670	      0.84917426	     46.56617094	      0.81273300	      1.53011699	    -11.78861692	     -6.23621935	     -8.98551431	      1.72602569	      6.61786420	     12.39431187	     -4.97328366	     -0.20896222	     45.61866690	    105.08016099	      1.73695492	     -7.24769394	      2.31331940	     30.97154681	    104.11516986
      0.41000000	      0.71642372	     -4.42551698	      1.51488782	      0.40841099	      0.96710710	     -0.20372952	     -6.09158038	      7.89011411	      3.23418232	      4.64717836	      0.08110856	     10.47291400	     -6.06081651	     -6.25071590	     28.31487364	     -4.66432984	      0.47227226	     43.01642106	      0.75077818	      1.42769590	    -11.16422896	     -6.25071590	     -8.55388186	      1.26622508	      7.20066258	     12.70769245	     -4.99048053	      0.23394250	     46.39441727	    105.21365331	      1.25863359	     -7.36622373	      1.96034323	     30.73557473	    104.08670381
      0.42000000	      0.69035802	     -4.31551396	      1.35375560	      0.41971453	      0.96648926	     -0.20293634	     -7.18060230	      7.79527450	      3.39868252	      3.98859833	      0.06961417	     10.75880275	     -5.65383101	     -6.27512443	     28.35345135	     -4.73664328	      0.00342372	     39.24236926	      0.68490855	      1.25334195	    -10.37786247	     -6.27512443	     -8.47875801	      0.82364841	      7.83004034	     13.08823023	     -5.11346658	      0.80995644	     47.28239109	    105.39502234	      0.91396757	     -7.44149434	      1.38387291	     30.52269233	    104.04000405
      0.43000000	      0.45037194	     -4.26230761	      1.22947723	      0.43102387	      0.96530609	     -0.20226027	     -7.98455169	      7.75286794	      3.51042078	      3.42101622	      0.05970800	     10.96578037	     -5.32582616	     -6.29281151	     28.57175501	     -4.81539829	     -0.28880013	     35.38630184	      0.61760748	      1.13711087	     -9.43203772	     -6.29281151	     -8.12739287	      0.43033506	      8.38686730	     13.42101565	     -5.21037992	      1.30619538	     48.05640951	    105.53692393	      0.52294719	     -7.55556114	      0.91722390	     30.30456765	    103.98462106
      0.44000000	      0.09224627	     -4.36159673	      1.13588591	      0.44235655	      0.96368555	     -0.20174155	     -8.60513962	      7.86904547	      3.62562120	      2.96620666	      0.05177007	     11.11484353	     -5.07265514	     -6.30213793	     28.88148883	     -5.01510960	     -0.39248060	     31.50598390	      0.54988315	      1.13099307	     -8.46476454	     -6.30213793	     -7.59815069	      0.22967811	      8.86277572	     13.73640385	     -5.28077845	      1.71290177	     48.75673105	    105.63858330	      0.08449933	     -7.66004443	      0.59027540	     30.06698540	    103.92859133
      0.45000000	      0.17012192	     -4.27748157	      0.99292629	      0.45377270	      0.96262472	     -0.20118891	     -9.73986635	      7.75825653	      3.59490246	      2.44181033	      0.04261763	     11.58734835	     -4.27813733	     -6.35705360	     28.50514675	     -5.17027198	     -0.99176466	     27.39971096	      0.47821517	      1.36215097	     -6.50094346	     -6.35705360	     -7.69848904	     -0.23875647	      9.40520882	     14.17455340	     -5.48915661	      2.49047352	     49.51651811	    105.73920175	     -0.17728651	     -7.65182598	     -0.50339000	     30.02007578	    103.71998400
      0.46000000	     -0.11515475	     -4.34005518	      0.89352859	      0.46517583	      0.96083424	     -0.20082512	    -10.37303983	      7.81328918	      3.65149482	      2.12553893	      0.03709765	     11.84609016	     -4.04791252	     -6.37561523	     28.52322277	     -5.36173185	     -1.19228752	     23.35967846	      0.40770330	      1.33796466	     -5.01819542	     -6.37561523	     -7.29363498	     -0.52602914	      9.90433722	     14.46781023	     -5.64454566	      2.99308058	     50.16422997	    105.75831225	     -0.46287425	     -7.75009357	     -0.90099818	     29.79018583	    103.58437921
      0.47000000	     -0.18382407	     -4.39750168	      0.77186713	      0.47670355	      0.95922972	     -0.20051012	    -11.23657861	      7.84087994	      3.64393777	      1.83543038	      0.03203430	     12.20322260	     -3.57604903	     -6.40506766	     28.22832716	     -5.63757163	     -1.78280659	     19.38683178	      0.33836405	      1.65070289	     -2.85170491	     -6.40506766	     -7.16488728	     -0.81908184	     10.37690190	     14.80793641	     -5.85147661	      3.59147181	     50.82646919	    105.75486721	     -0.69951682	     -7.80495854	     -1.52993033	     29.58649710	    103.38552495
      0.48000000	     -0.39057466	     -4.48494454	      0.63440168	      0.48827663	      0.95735350	     -0.20029616	    -11.88857508	      7.88549693	      3.59706336	      1.66402430	      0.02904270	     12.56902196	     -3.12593068	     -6.43183679	     28.04591695	     -5.91765551	     -2.28251795	     15.59429427	      0.27217178	      2.04950340	     -0.56566987	     -6.43183679	     -6.85600745	     -1.08239838	     10.84545575	     15.09236466	     -6.05804057	      4.12727546	     51.40036471	    105.71544318	     -0.94821275	     -7.84351948	     -2.12927830	     29.45037813	    103.16768799
      0.49000000	     -0.59578154	     -4.58499740	      0.43327694	      0.50002426	      0.95537946	     -0.20005197	    -12.48903930	      7.91684102	      3.43004290	      1.61808697	      0.02824095	     13.04574262	     -2.25842533	     -6.49160293	     27.91959841	     -6.30130543	     -3.26173955	     12.28850954	      0.21447495	      2.99719143	      2.63814716	     -6.49160293	     -6.53039678	     -1.37718964	     11.27061551	     15.40396577	     -6.22486637	      4.71423938	     51.85857766	    105.54283384	     -1.30501868	     -7.85949157	     -3.12016839	     29.53563397	    102.76057273
      0.50000000	     -0.78709997	     -4.65997892	      0.21038179	      0.51178742	      0.95342958	     -0.19993528	    -13.08680616	      7.91130051	      3.46468985	      1.60952620	      0.02809153	     13.31828267	     -2.02107214	     -6.51070983	     27.67973241	     -6.55715790	     -3.62678667	      9.17499757	      0.16013392	      3.17381545	      4.39046385	     -6.51070983	     -6.21299458	     -1.67712777	     11.80530264	     15.59903331	     -6.45779827	      5.16675153	     52.33615701	    105.47630848	     -1.47085710	     -7.90958219	     -3.54329204	     29.34421610	    102.54027740
      0.51000000	     -0.93553543	     -4.67501389	     -0.09489555	      0.52363839	      0.95156508	     -0.19976984	    -13.67574562	      7.80792740	      3.52900724	      1.70290688	      0.02972133	     13.56665467	     -1.62682425	     -6.52970136	     27.43172409	     -6.81234171	     -4.17896166	      6.65250071	      0.11610804	      3.57873453	      6.34293895	     -6.52970136	     -5.97198634	     -2.08649852	     12.36756769	     15.79089561	     -6.67960840	      5.61602506	     52.76676108	    105.40004440	     -1.61082978	     -7.97378073	     -4.06665592	     29.18542633	    102.28589726
      0.52000000	     -1.21644924	     -4.70890562	     -0.44935677	      0.53558953	      0.94950775	     -0.19953196	    -14.05196676	      7.71665507	      3.59437299	      1.93594550	      0.03378862	     13.63709423	     -1.36963436	     -6.53889918	     27.42829027	     -7.09791078	     -4.47539091	      4.89649768	      0.08546001	      4.07016838	      7.34869566	     -6.53889918	     -5.52982659	     -2.47996554	     12.84534618	     15.95549142	     -6.77586780	      5.91635998	     53.08990984	    105.35296670	     -1.84225901	     -8.09474321	     -4.39140092	     29.03037645	    102.12248232
      0.53000000	     -1.11151898	     -4.57341434	     -0.86393686	      0.54775843	      0.94808850	     -0.19933962	    -14.80680783	      7.38240983	      3.45814217	      2.26459238	      0.03952459	     14.09331429	     -0.47274990	     -6.57952387	     27.10142358	     -7.33040275	     -5.91006964	      3.96907770	      0.06927347	      4.95564390	     10.00165417	     -6.57952387	     -5.58097752	     -3.11291887	     13.37825385	     16.17662071	     -6.97043368	      6.52155140	     53.46484516	    105.15175963	     -1.94720497	     -8.06537871	     -5.49157393	     28.98893519	    101.60446541
